<svg xmlns="http://www.w3.org/2000/svg" width="720" height="420" viewBox="0 0 720 420">
<text x="58" y="28" font-size="18" font-weight="700">Success vs. Overhead</text>
<line x1="58" y1="362" x2="662" y2="362" stroke="#333" />
<line x1="58" y1="58" x2="58" y2="362" stroke="#333" />
<text x="58" y="408" font-size="12">depth / method</text>
<text x="10" y="40" font-size="12">success</text>
<rect x="76.9" y="260.7" width="62.9" height="101.3" fill="#2f6f9f" opacity="0.85" />
<text x="76.9" y="390" font-size="11" transform="rotate(-25 76.9,390)">react</text>
<text x="76.9" y="252.7" font-size="11">SR 0.33, +F 0.0</text>
<rect x="177.5" y="58.0" width="62.9" height="304.0" fill="#d17b0f" opacity="0.85" />
<text x="177.5" y="390" font-size="11" transform="rotate(-25 177.5,390)">react_sft</text>
<text x="177.5" y="50.0" font-size="11">SR 1.00, +F 0.0</text>
<rect x="278.2" y="159.3" width="62.9" height="202.7" fill="#3a8f5b" opacity="0.85" />
<text x="278.2" y="390" font-size="11" transform="rotate(-25 278.2,390)">token_mtp</text>
<text x="278.2" y="151.3" font-size="11">SR 0.67, +F 0.0</text>
<rect x="378.9" y="159.3" width="62.9" height="202.7" fill="#8a5fbf" opacity="0.85" />
<text x="378.9" y="390" font-size="11" transform="rotate(-25 378.9,390)">plan_and_act</text>
<text x="378.9" y="151.3" font-size="11">SR 0.67, +F 1.0</text>
<rect x="479.5" y="159.3" width="62.9" height="202.7" fill="#b84545" opacity="0.85" />
<text x="479.5" y="390" font-size="11" transform="rotate(-25 479.5,390)">lats_webdreamer</text>
<text x="479.5" y="151.3" font-size="11">SR 0.67, +F 16.0</text>
<rect x="580.2" y="210.0" width="62.9" height="152.0" fill="#2f6f9f" opacity="0.85" />
<text x="580.2" y="390" font-size="11" transform="rotate(-25 580.2,390)">foreact_latent_rerank</text>
<text x="580.2" y="202.0" font-size="11">SR 0.50, +F 12.0</text>
</svg>
